<svg width="18" height="18" viewBox="0 0 18 18" fill="none" xmlns="http://www.w3.org/2000/svg">
<path d="M9.00002 0.666656C4.40502 0.666656 0.666687 4.40499 0.666687 8.99999V12.4525C0.666687 13.3058 1.41419 14 2.33335 14H3.16669C3.3877 14 3.59966 13.9122 3.75594 13.7559C3.91222 13.5996 4.00002 13.3877 4.00002 13.1667V8.88082C4.00002 8.65981 3.91222 8.44785 3.75594 8.29157C3.59966 8.13529 3.3877 8.04749 3.16669 8.04749H2.41002C2.87335 4.82249 5.64835 2.33332 9.00002 2.33332C12.3517 2.33332 15.1267 4.82249 15.59 8.04749H14.8334C14.6123 8.04749 14.4004 8.13529 14.2441 8.29157C14.0878 8.44785 14 8.65981 14 8.88082V14C14 14.9192 13.2525 15.6667 12.3334 15.6667H10.6667V14.8333H7.33335V17.3333H12.3334C14.1717 17.3333 15.6667 15.8383 15.6667 14C16.5859 14 17.3334 13.3058 17.3334 12.4525V8.99999C17.3334 4.40499 13.595 0.666656 9.00002 0.666656Z" fill="#999999"/>
</svg>
