<svg width="24" height="38" viewBox="0 0 24 38" fill="none" xmlns="http://www.w3.org/2000/svg">
<path d="M23.3877 17.7695L1.37598 0.577156C1.31846 0.531873 1.24934 0.503732 1.17655 0.495964C1.10376 0.488196 1.03025 0.501116 0.964476 0.53324C0.898698 0.565365 0.843315 0.61539 0.804687 0.677572C0.766058 0.739754 0.745751 0.81157 0.746098 0.884773V4.65919C0.746098 4.89845 0.858403 5.12794 1.04395 5.27442L18.6221 19L1.04395 32.7256C0.85352 32.8721 0.746098 33.1016 0.746098 33.3408V37.1152C0.746098 37.4424 1.12207 37.6231 1.37598 37.4229L23.3877 20.2305C23.5748 20.0845 23.7261 19.8979 23.8302 19.6846C23.9343 19.4714 23.9884 19.2373 23.9884 19C23.9884 18.7627 23.9343 18.5286 23.8302 18.3154C23.7261 18.1021 23.5748 17.9155 23.3877 17.7695Z" fill="white"/>
</svg>
