<svg width="16" height="18" viewBox="0 0 16 18" fill="none" xmlns="http://www.w3.org/2000/svg">
<path d="M2.16667 17.3333H13.8333C14.7525 17.3333 15.5 16.5858 15.5 15.6667V6.49999C15.5 6.27898 15.4122 6.06701 15.2559 5.91073C15.0996 5.75445 14.8877 5.66666 14.6667 5.66666H12.1667V4.83332C12.1667 2.53582 10.2975 0.666656 8 0.666656C5.7025 0.666656 3.83333 2.53582 3.83333 4.83332V5.66666H1.33333C1.11232 5.66666 0.900358 5.75445 0.744078 5.91073C0.587797 6.06701 0.5 6.27898 0.5 6.49999V15.6667C0.5 16.5858 1.2475 17.3333 2.16667 17.3333ZM5.5 4.83332C5.5 3.45499 6.62167 2.33332 8 2.33332C9.37833 2.33332 10.5 3.45499 10.5 4.83332V5.66666H5.5V4.83332ZM2.16667 7.33332H3.83333V8.99999H5.5V7.33332H10.5V8.99999H12.1667V7.33332H13.8333L13.835 15.6667H2.16667V7.33332Z" fill="#999999"/>
</svg>
