<svg width="18" height="16" viewBox="0 0 18 16" fill="none" xmlns="http://www.w3.org/2000/svg">
<path d="M9.00003 1.82916C8.09203 0.994243 6.90353 0.530862 5.67002 0.530823C5.01714 0.531503 4.37084 0.661289 3.76831 0.912713C3.16577 1.16414 2.61891 1.53223 2.15919 1.99582C0.198358 3.96499 0.199191 7.04499 2.16086 9.00582L8.27086 15.1158C8.41253 15.365 8.68586 15.5258 9.00003 15.5258C9.12902 15.5246 9.25593 15.4931 9.37055 15.4339C9.48518 15.3747 9.58432 15.2894 9.66003 15.185L15.8392 9.00582C17.8009 7.04416 17.8009 3.96499 15.8375 1.99249C15.378 1.52975 14.8316 1.1624 14.2297 0.911559C13.6277 0.660714 12.9821 0.531322 12.33 0.530823C11.0965 0.531024 9.90811 0.994383 9.00003 1.82916V1.82916ZM14.6592 3.17082C15.9617 4.47999 15.9625 6.52499 14.6609 7.82749L9.00003 13.4883L3.33919 7.82749C2.03752 6.52499 2.03836 4.47999 3.33752 3.17416C3.97086 2.54416 4.79919 2.19749 5.67002 2.19749C6.54086 2.19749 7.36586 2.54416 7.99419 3.17249L8.41086 3.58916C8.48818 3.66661 8.58002 3.72806 8.68111 3.76998C8.78221 3.81191 8.89058 3.83349 9.00003 3.83349C9.10947 3.83349 9.21784 3.81191 9.31894 3.76998C9.42003 3.72806 9.51187 3.66661 9.58919 3.58916L10.0059 3.17249C11.2659 1.91499 13.4009 1.91832 14.6592 3.17082V3.17082Z" fill="#999999"/>
</svg>
