<svg width="16" height="17" viewBox="0 0 16 17" fill="none" xmlns="http://www.w3.org/2000/svg">
<path d="M8 0.666656C7.17591 0.666656 6.37033 0.911027 5.68512 1.36887C4.99992 1.82671 4.46587 2.47745 4.1505 3.23881C3.83514 4.00017 3.75262 4.83795 3.91339 5.6462C4.07417 6.45445 4.471 7.19688 5.05372 7.7796C5.63644 8.36232 6.37887 8.75916 7.18712 8.91993C7.99538 9.0807 8.83316 8.99819 9.59451 8.68282C10.3559 8.36746 11.0066 7.8334 11.4645 7.1482C11.9223 6.46299 12.1667 5.65741 12.1667 4.83332C12.1667 3.72825 11.7277 2.66845 10.9463 1.88704C10.1649 1.10564 9.10507 0.666656 8 0.666656V0.666656ZM8 7.33332C7.50555 7.33332 7.0222 7.1867 6.61107 6.912C6.19995 6.63729 5.87952 6.24685 5.6903 5.79003C5.50108 5.33322 5.45157 4.83055 5.54804 4.3456C5.6445 3.86064 5.8826 3.41519 6.23223 3.06556C6.58186 2.71592 7.02732 2.47782 7.51227 2.38136C7.99723 2.2849 8.49989 2.33441 8.95671 2.52362C9.41352 2.71284 9.80397 3.03327 10.0787 3.4444C10.3534 3.85552 10.5 4.33887 10.5 4.83332C10.5 5.49636 10.2366 6.13225 9.76777 6.60109C9.29893 7.06993 8.66304 7.33332 8 7.33332V7.33332ZM15.5 16.5V15.6667C15.5 14.1196 14.8854 12.6358 13.7915 11.5419C12.6975 10.4479 11.2138 9.83332 9.66667 9.83332H6.33333C4.78624 9.83332 3.30251 10.4479 2.20854 11.5419C1.11458 12.6358 0.5 14.1196 0.5 15.6667V16.5H2.16667V15.6667C2.16667 14.5616 2.60565 13.5018 3.38706 12.7204C4.16846 11.939 5.22826 11.5 6.33333 11.5H9.66667C10.7717 11.5 11.8315 11.939 12.6129 12.7204C13.3943 13.5018 13.8333 14.5616 13.8333 15.6667V16.5H15.5Z" fill="#999999"/>
</svg>
