<svg width="17" height="17" viewBox="0 0 17 17" fill="none" xmlns="http://www.w3.org/2000/svg">
<path d="M7.33335 14C8.8125 13.9997 10.249 13.5045 11.4142 12.5933L15.0775 16.2567L16.2559 15.0783L12.5925 11.415C13.5042 10.2497 13.9997 8.81285 14 7.33332C14 3.65749 11.0092 0.666656 7.33335 0.666656C3.65752 0.666656 0.666687 3.65749 0.666687 7.33332C0.666687 11.0092 3.65752 14 7.33335 14ZM7.33335 2.33332C10.0909 2.33332 12.3334 4.57582 12.3334 7.33332C12.3334 10.0908 10.0909 12.3333 7.33335 12.3333C4.57585 12.3333 2.33335 10.0908 2.33335 7.33332C2.33335 4.57582 4.57585 2.33332 7.33335 2.33332Z" fill="#999999"/>
</svg>
