<svg width="24" height="38" viewBox="0 0 24 38" fill="none" xmlns="http://www.w3.org/2000/svg">
<path d="M23.3516 4.65918V0.88477C23.3516 0.557621 22.9756 0.376957 22.7217 0.577152L0.70997 17.7695C0.52295 17.915 0.37162 18.1012 0.267523 18.314C0.163427 18.5269 0.109314 18.7606 0.109314 18.9976C0.109314 19.2345 0.163427 19.4683 0.267523 19.6811C0.37162 19.8939 0.52295 20.0801 0.70997 20.2256L22.7217 37.418C22.9805 37.6182 23.3516 37.4375 23.3516 37.1104V33.3359C23.3516 33.0967 23.2393 32.8672 23.0537 32.7207L5.4756 19L23.0537 5.27442C23.2393 5.12793 23.3516 4.89844 23.3516 4.65918Z" fill="white"/>
</svg>
