<svg width="26" height="26" viewBox="0 0 26 26" fill="none" xmlns="http://www.w3.org/2000/svg">
<path d="M6.145 15.9038L4.2825 23.9688C4.22483 24.213 4.24214 24.4689 4.33218 24.7031C4.42222 24.9373 4.5808 25.139 4.78721 25.2816C4.99362 25.4243 5.23827 25.5015 5.48919 25.503C5.74012 25.5044 5.98566 25.4302 6.19375 25.29L13 20.7525L19.8063 25.29C20.0192 25.4314 20.2703 25.5041 20.5258 25.4985C20.7813 25.4929 21.029 25.4092 21.2355 25.2587C21.442 25.1081 21.5975 24.8979 21.681 24.6563C21.7645 24.4148 21.772 24.1535 21.7025 23.9075L19.4163 15.9075L25.0863 10.805C25.2679 10.6415 25.3975 10.4283 25.4593 10.1919C25.521 9.95545 25.5121 9.7061 25.4336 9.47468C25.3552 9.24326 25.2106 9.03991 25.0178 8.88978C24.8249 8.73966 24.5924 8.64934 24.3488 8.63L17.2225 8.0625L14.1388 1.23625C14.0404 1.01645 13.8806 0.829797 13.6785 0.698828C13.4765 0.567859 13.2408 0.498169 13 0.498169C12.7592 0.498169 12.5236 0.567859 12.3215 0.698828C12.1194 0.829797 11.9596 1.01645 11.8613 1.23625L8.7775 8.0625L1.65125 8.62875C1.41182 8.64772 1.18292 8.73527 0.991946 8.88092C0.800967 9.02657 0.655994 9.22415 0.574369 9.45004C0.492744 9.67593 0.477925 9.92054 0.531683 10.1546C0.585442 10.3887 0.705503 10.6024 0.877502 10.77L6.145 15.9038ZM9.71125 10.4963C9.93437 10.4787 10.1487 10.4014 10.3316 10.2725C10.5146 10.1436 10.6595 9.96791 10.7513 9.76375L13 4.7875L15.2488 9.76375C15.3405 9.96791 15.4854 10.1436 15.6684 10.2725C15.8514 10.4014 16.0656 10.4787 16.2888 10.4963L21.2538 10.89L17.165 14.57C16.81 14.89 16.6688 15.3825 16.7988 15.8425L18.365 21.3238L13.695 18.21C13.49 18.0724 13.2487 17.999 13.0019 17.999C12.755 17.999 12.5137 18.0724 12.3088 18.21L7.42875 21.4638L8.74125 15.7813C8.78938 15.5723 8.78292 15.3544 8.7225 15.1486C8.66208 14.9428 8.54973 14.7561 8.39625 14.6063L4.59875 10.9038L9.71125 10.4963Z" fill="black"/>
</svg>
