<svg width="24" height="24" viewBox="0 0 24 24" fill="none" xmlns="http://www.w3.org/2000/svg">
<path d="M11.0238 1.21874L7 6.24874L2.97625 1.21874C2.81373 1.01785 2.59306 0.872132 2.34447 0.801576C2.09589 0.731021 1.83157 0.739077 1.58774 0.824642C1.34392 0.910206 1.13253 1.06909 0.982547 1.27951C0.832566 1.48993 0.751339 1.74159 0.75 1.99999V20.75C0.75 22.1287 1.87125 23.25 3.25 23.25H20.75C22.1287 23.25 23.25 22.1287 23.25 20.75V1.99999C23.2487 1.74159 23.1674 1.48993 23.0175 1.27951C22.8675 1.06909 22.6561 0.910206 22.4123 0.824642C22.1684 0.739077 21.9041 0.731021 21.6555 0.801576C21.4069 0.872132 21.1863 1.01785 21.0238 1.21874L17 6.24874L12.9762 1.21874C12.5 0.626243 11.5 0.626243 11.0238 1.21874ZM3.25 20.75V18.25H20.7512V20.75H3.25ZM16.0238 9.03124C16.5 9.62499 17.5012 9.62499 17.9775 9.03124L20.75 5.56374L20.7512 15.75H3.25V5.56374L6.02375 9.03124C6.5 9.62499 7.50125 9.62499 7.9775 9.03124L12 4.00124L16.0238 9.03124Z" fill="black"/>
</svg>
